<?xml version="1.0" encoding="UTF-8"?>
<svg width="196px" height="196px" viewBox="0 0 196 196" version="1.1" xmlns="http://www.w3.org/2000/svg" xmlns:xlink="http://www.w3.org/1999/xlink">
    <!-- Generator: Sketch 43.2 (39069) - http://www.bohemiancoding.com/sketch -->
    <title>WSLink-logo</title>
    <desc>Created with Sketch.</desc>
    <defs>
        <linearGradient x1="50%" y1="37.159022%" x2="67.8474472%" y2="57.0647185%" id="linearGradient-1">
            <stop stop-color="#4986B8" offset="0%"></stop>
            <stop stop-color="#FDDE50" offset="100%"></stop>
        </linearGradient>
        <linearGradient x1="49.8863999%" y1="27.8818816%" x2="46.6398278%" y2="27.8818816%" id="linearGradient-2">
            <stop stop-color="#FCD238" offset="0%"></stop>
            <stop stop-color="#447FAF" offset="100%"></stop>
        </linearGradient>
    </defs>
    <g id="Page-1" stroke="none" stroke-width="1" fill="none" fill-rule="evenodd">
        <g id="WSLink">
            <path d="M179.555259,69.5 C178.311059,68.5805359 172.111338,67.4213782 167.852959,66.5030914 C164.299872,65.7368956 158.266373,69.4999982 156.992623,69.86 C155.718874,70.2200018 154.562461,70.8199958 153.52335,71.66 C152.484238,72.5000042 151.612739,73.5599936 150.908825,74.84 C150.20491,76.1200064 149.852959,77.6799908 149.852959,79.52 C149.852959,81.920012 150.64066,83.819993 152.216087,85.22 C153.791514,86.620007 155.987023,87.919994 158.802679,89.12 C161.886494,90.4000064 164.635069,91.8199922 167.048489,93.38 C169.461909,94.9400078 171.506581,96.71999 173.182568,98.72 C174.858554,100.72001 176.132284,102.979987 177.003797,105.5 C177.875309,108.020013 178.311059,110.879984 178.311059,114.08 C178.311059,119.200026 177.4228,123.559982 175.646255,127.16 C173.869709,130.760018 171.573643,133.699989 168.757987,135.98 C165.94233,138.260011 162.791524,139.919995 159.305473,140.96 C155.819422,142.000005 152.366942,142.52 148.947931,142.52 C146.400432,142.52 135.64361,141.688546 128.083215,135.98 C120.522821,130.271454 119.151258,113.238826 119.151258,113.238826 C119.992988,114.769438 124.289947,121.754752 128.083215,125.294752 C131.394322,128.384783 136.785105,129.357737 139.417591,130.271454 C145.96431,132.543775 152.149041,127.520002 153.52335,127.16 C154.897658,126.799998 156.12111,124.460004 157.193741,123.62 C158.266372,122.779996 159.121112,121.700007 159.757987,120.38 C160.394861,119.059993 160.713294,117.480009 160.713294,115.64 C160.713294,112.679985 159.707717,110.340009 157.696534,108.62 C155.685351,106.899991 153.003813,105.360007 149.651841,104 C147.305461,103.039995 145.109952,101.960006 143.065249,100.76 C141.020546,99.559994 139.244028,98.0800088 137.73564,96.32 C136.227253,94.5599912 135.020561,92.4600122 134.115528,90.02 C133.210496,87.5799878 132.757987,84.6400172 132.757987,81.2 C132.757987,76.8799784 133.512169,72.9800174 135.020556,69.5 C136.528944,66.0199826 138.590376,63.0600122 141.204914,60.62 C143.819452,58.1799878 146.869701,56.3000066 150.355752,54.98 C153.841803,53.6599934 157.562436,53 161.517763,53 C163.595986,53 165.707696,53.2399976 167.852959,53.72 C169.998221,54.2000024 171.204904,54.9935994 173.182568,55.913604 C175.160231,56.8336086 177.548154,59.2599932 179.22414,60.62 C180.900126,61.9800068 181.31648,65.0795387 181.996614,67.2206939 L179.555259,69.5 Z" id="Path" stroke="#4A4A4A" stroke-width="2" fill="url(#linearGradient-1)"></path>
            <ellipse id="Oval" fill="#F8E81C" cx="173.418994" cy="62" rx="2.51396648" ry="3"></ellipse>
            <polyline id="Path-4" stroke="#D0011B" stroke-width="2" points="179.955307 68.6 184.141567 72.7672199 184.774415 75.8643149"></polyline>
            <path d="M187.370459,72.2510144 L184.98324,72.2" id="Path-5" stroke="#D0011B" stroke-width="2"></path>
            <path d="M55.8659218,110.48 C55.3296063,113.920017 54.5921835,117.479982 53.6536313,121.16 C52.7150791,124.840018 51.307272,128.179985 49.4301676,131.18 C47.5530632,134.180015 45.0726411,136.63999 41.9888268,138.56 C38.9050125,140.48001 34.983264,141.44 30.2234637,141.44 C24.1228745,141.44 19.1620303,139.660018 15.3407821,136.1 C11.519534,132.539982 9.07263106,127.72003 8,121.64 L23.4860335,115.64 C23.7541913,117.800011 24.4580949,119.639992 25.5977654,121.16 C26.7374359,122.680008 28.2458007,123.44 30.122905,123.44 C33.0726404,123.44 35.1843512,122.200012 36.4581006,119.72 C37.7318499,117.239988 38.6368688,114.120019 39.1731844,110.36 L47.4189944,54.2 L64.3128492,54.2 L55.8659218,110.48 Z" id="J" stroke="#4A4A4A" stroke-width="3" fill="#FDDE50" transform="translate(36.156425, 97.820000) scale(-1, 1) translate(-36.156425, -97.820000) "></path>
            <path d="M112.178771,111.68 C111.642455,115.120017 110.905033,118.679982 109.96648,122.36 C109.027928,126.040018 107.620121,129.379985 105.743017,132.38 C103.865912,135.380015 101.38549,137.83999 98.301676,139.76 C95.2178617,141.68001 91.2961132,142.64 86.5363128,142.64 C80.4357237,142.64 75.4748794,140.860018 71.6536313,137.3 C67.8323831,133.739982 65.3854802,128.92003 64.3128492,122.84 L79.7988827,116.84 C80.0670404,119.000011 80.770944,120.839992 81.9106145,122.36 C83.050285,123.880008 84.5586498,124.64 86.4357542,124.64 C89.3854896,124.64 91.4972003,123.400012 92.7709497,120.92 C94.0446991,118.439988 94.949718,115.320019 95.4860335,111.56 L103.731844,55.4 L120.625698,55.4 L112.178771,111.68 Z" id="J" stroke="#4A4A4A" stroke-width="3" fill="#4A86B8"></path>
            <polyline id="Path-6" stroke="url(#linearGradient-2)" stroke-width="12" points="56.2406439 114.378084 63.639779 86.2586807 71.7022983 114.378084"></polyline>
        </g>
    </g>
</svg>